<mxfile host="Electron" agent="Mozilla/5.0 (Windows NT 10.0; Win64; x64) AppleWebKit/537.36 (KHTML, like Gecko) draw.io/24.7.17 Chrome/128.0.6613.36 Electron/32.0.1 Safari/537.36" version="24.7.17">
  <diagram name="Page-1" id="XbvxsjoNIfP41b3IaiPZ">
    <mxGraphModel dx="1292" dy="1167" grid="1" gridSize="10" guides="1" tooltips="1" connect="1" arrows="1" fold="1" page="1" pageScale="1" pageWidth="850" pageHeight="1100" math="0" shadow="0">
      <root>
        <mxCell id="0" />
        <mxCell id="1" parent="0" />
        <object label="Player&lt;div&gt;&lt;br&gt;&lt;/div&gt;" Player="" id="vOD88G8vkaUYscp2FGfv-1">
          <mxCell style="shape=umlActor;verticalLabelPosition=bottom;verticalAlign=top;html=1;outlineConnect=0;" vertex="1" parent="1">
            <mxGeometry x="100" y="390" width="100" height="180" as="geometry" />
          </mxCell>
        </object>
        <mxCell id="vOD88G8vkaUYscp2FGfv-6" value="Play a game of &#39;Paaac-Man&#39;" style="ellipse;whiteSpace=wrap;html=1;" vertex="1" parent="1">
          <mxGeometry x="335" y="200" width="180" height="110" as="geometry" />
        </mxCell>
        <mxCell id="vOD88G8vkaUYscp2FGfv-7" value="Record High Scores from game session" style="ellipse;whiteSpace=wrap;html=1;" vertex="1" parent="1">
          <mxGeometry x="380" y="330" width="200" height="90" as="geometry" />
        </mxCell>
        <mxCell id="vOD88G8vkaUYscp2FGfv-8" value="Be able to pause game" style="ellipse;whiteSpace=wrap;html=1;" vertex="1" parent="1">
          <mxGeometry x="400" y="470" width="180" height="110" as="geometry" />
        </mxCell>
        <mxCell id="vOD88G8vkaUYscp2FGfv-9" value="Navigate through the maze" style="ellipse;whiteSpace=wrap;html=1;" vertex="1" parent="1">
          <mxGeometry x="650" y="180" width="180" height="110" as="geometry" />
        </mxCell>
        <mxCell id="vOD88G8vkaUYscp2FGfv-10" value="Collect Items (clean up the board)" style="ellipse;whiteSpace=wrap;html=1;" vertex="1" parent="1">
          <mxGeometry x="335" y="30" width="180" height="110" as="geometry" />
        </mxCell>
        <mxCell id="vOD88G8vkaUYscp2FGfv-11" value="Grab Power-Ups" style="ellipse;whiteSpace=wrap;html=1;" vertex="1" parent="1">
          <mxGeometry x="60" y="10" width="180" height="110" as="geometry" />
        </mxCell>
        <mxCell id="vOD88G8vkaUYscp2FGfv-12" value="&amp;lt;&amp;lt;extend&amp;gt;&amp;gt;" style="html=1;verticalAlign=bottom;labelBackgroundColor=none;endArrow=open;endFill=0;dashed=1;rounded=0;exitX=1;exitY=0.5;exitDx=0;exitDy=0;entryX=0;entryY=0.5;entryDx=0;entryDy=0;" edge="1" parent="1" source="vOD88G8vkaUYscp2FGfv-11" target="vOD88G8vkaUYscp2FGfv-10">
          <mxGeometry width="160" relative="1" as="geometry">
            <mxPoint x="280" y="40" as="sourcePoint" />
            <mxPoint x="440" y="40" as="targetPoint" />
          </mxGeometry>
        </mxCell>
        <mxCell id="vOD88G8vkaUYscp2FGfv-13" value="&amp;lt;&amp;lt;extend&amp;gt;&amp;gt;" style="html=1;verticalAlign=bottom;labelBackgroundColor=none;endArrow=open;endFill=0;dashed=1;rounded=0;exitX=0.5;exitY=1;exitDx=0;exitDy=0;" edge="1" parent="1" source="vOD88G8vkaUYscp2FGfv-10" target="vOD88G8vkaUYscp2FGfv-6">
          <mxGeometry width="160" relative="1" as="geometry">
            <mxPoint x="550" y="40" as="sourcePoint" />
            <mxPoint x="600" y="230" as="targetPoint" />
          </mxGeometry>
        </mxCell>
        <mxCell id="vOD88G8vkaUYscp2FGfv-14" value="&amp;lt;&amp;lt;extend&amp;gt;&amp;gt;" style="html=1;verticalAlign=bottom;labelBackgroundColor=none;endArrow=open;endFill=0;dashed=1;rounded=0;exitX=0;exitY=0.5;exitDx=0;exitDy=0;entryX=0.961;entryY=0.309;entryDx=0;entryDy=0;entryPerimeter=0;" edge="1" parent="1" source="vOD88G8vkaUYscp2FGfv-9" target="vOD88G8vkaUYscp2FGfv-6">
          <mxGeometry width="160" relative="1" as="geometry">
            <mxPoint x="640" y="151" as="sourcePoint" />
            <mxPoint x="575" y="260" as="targetPoint" />
            <Array as="points" />
          </mxGeometry>
        </mxCell>
        <mxCell id="vOD88G8vkaUYscp2FGfv-17" value="" style="endArrow=none;html=1;rounded=0;entryX=0;entryY=1;entryDx=0;entryDy=0;" edge="1" parent="1" source="vOD88G8vkaUYscp2FGfv-1" target="vOD88G8vkaUYscp2FGfv-6">
          <mxGeometry width="50" height="50" relative="1" as="geometry">
            <mxPoint x="310" y="310" as="sourcePoint" />
            <mxPoint x="360" y="260" as="targetPoint" />
          </mxGeometry>
        </mxCell>
        <mxCell id="vOD88G8vkaUYscp2FGfv-18" value="" style="endArrow=none;html=1;rounded=0;entryX=0.02;entryY=0.578;entryDx=0;entryDy=0;entryPerimeter=0;" edge="1" parent="1" source="vOD88G8vkaUYscp2FGfv-1" target="vOD88G8vkaUYscp2FGfv-7">
          <mxGeometry width="50" height="50" relative="1" as="geometry">
            <mxPoint x="230" y="571" as="sourcePoint" />
            <mxPoint x="396" y="390" as="targetPoint" />
          </mxGeometry>
        </mxCell>
        <mxCell id="vOD88G8vkaUYscp2FGfv-20" value="" style="endArrow=none;html=1;rounded=0;entryX=0;entryY=0.5;entryDx=0;entryDy=0;" edge="1" parent="1" source="vOD88G8vkaUYscp2FGfv-1" target="vOD88G8vkaUYscp2FGfv-8">
          <mxGeometry width="50" height="50" relative="1" as="geometry">
            <mxPoint x="210" y="469" as="sourcePoint" />
            <mxPoint x="394" y="392" as="targetPoint" />
          </mxGeometry>
        </mxCell>
        <mxCell id="vOD88G8vkaUYscp2FGfv-21" value="End Game" style="ellipse;whiteSpace=wrap;html=1;" vertex="1" parent="1">
          <mxGeometry x="650" y="390" width="180" height="110" as="geometry" />
        </mxCell>
        <mxCell id="vOD88G8vkaUYscp2FGfv-23" value="&amp;lt;&amp;lt;extend&amp;gt;&amp;gt;" style="html=1;verticalAlign=bottom;labelBackgroundColor=none;endArrow=open;endFill=0;dashed=1;rounded=0;exitX=0;exitY=0.5;exitDx=0;exitDy=0;" edge="1" parent="1" source="vOD88G8vkaUYscp2FGfv-21" target="vOD88G8vkaUYscp2FGfv-8">
          <mxGeometry width="160" relative="1" as="geometry">
            <mxPoint x="610" y="610" as="sourcePoint" />
            <mxPoint x="770" y="610" as="targetPoint" />
          </mxGeometry>
        </mxCell>
      </root>
    </mxGraphModel>
  </diagram>
</mxfile>
